<svg height="512pt" viewBox="0 0 512 512" width="512pt" xmlns="http://www.w3.org/2000/svg"><path d="m245.328125 288c-17.648437 0-32-14.351562-32-32s14.351563-32 32-32h53.328125v-66.671875c.015625-16.175781-13.152344-29.328125-29.328125-29.328125h-112c-16.175781 0-29.328125 13.152344-29.328125 29.328125v197.328125c0 16.191406 13.152344 29.34375 29.328125 29.34375h112c16.175781 0 29.328125-13.152344 29.328125-29.328125v-66.671875zm0 0" fill="#feb415"/><path d="m326.574219 308.527344c-3.980469-1.664063-6.574219-5.550782-6.574219-9.855469v-32h-74.671875c-5.886719 0-10.671875-4.785156-10.671875-10.671875s4.785156-10.671875 10.671875-10.671875h74.671875v-32c0-4.320313 2.59375-8.207031 6.574219-9.855469 3.984375-1.648437 8.578125-.738281 11.632812 2.320313l42.671875 42.671875c4.160156 4.160156 4.160156 10.910156 0 15.085937l-42.671875 42.671875c-3.054687 3.042969-7.632812 3.953125-11.632812 2.304688zm0 0" fill="#feb415"/></svg>