<?xml version="1.0" encoding="iso-8859-1"?>
<!-- Generator: Adobe Illustrator 19.0.0, SVG Export Plug-In . SVG Version: 6.00 Build 0)  -->
<svg version="1.1" id="Layer_1" xmlns="http://www.w3.org/2000/svg" xmlns:xlink="http://www.w3.org/1999/xlink" x="0px" y="0px"
	 viewBox="0 0 512 512" style="enable-background:new 0 0 512 512;" xml:space="preserve">
<g>
	<g>
		<g>
			<path d="M468.669,196.475c0-0.004,0-0.009,0-0.013c-7.563-96.199-79.221-174.654-172.173-192.59
				c-0.422-0.111-0.854-0.194-1.296-0.25C282.487,1.252,269.388,0,256,0c-34.586,0-67.269,8.282-96.188,22.95
				c-0.795,0.298-1.541,0.686-2.232,1.154c-54.043,28.221-94.558,78.914-109.072,139.604c-0.146,0.461-0.259,0.927-0.34,1.396
				c-3.598,15.503-5.501,31.649-5.501,48.23c0,46.721,15.108,89.973,40.682,125.152c0.45,0.831,1.012,1.602,1.674,2.293
				c32.609,43.635,81.507,74.417,137.599,83.267c0.247,0.052,0.497,0.092,0.747,0.125c10.641,1.64,21.539,2.494,32.633,2.494
				c50.731,0,97.375-17.812,134.031-47.493c0.846-0.512,1.621-1.143,2.304-1.886c47.02-39.165,76.998-98.121,76.998-163.952
				C469.333,207.661,469.106,202.037,468.669,196.475z M304.126,27.442c65.453,16.956,117.457,67.662,136.27,132.358
				c-16.247-15.937-32.188-24.713-48.202-26.61c-19.171-2.271-35.401,5.167-50.265,14.463
				c-9.738-12.479-20.295-24.619-31.475-36.188c5.287-3.369,10.475-6.492,15.537-9.342c5.134-2.89,6.955-9.392,4.065-14.527
				c-2.89-5.134-9.396-6.95-14.527-4.065c-6.686,3.762-13.573,7.971-20.608,12.577c-8.706-8.196-17.698-16.006-26.881-23.355
				C289.232,58.284,301.551,47.742,304.126,27.442z M256,21.333c9.221,0,18.29,0.667,27.169,1.931
				c-1.134,13.429-8.854,19.589-33.11,35.893c-18.276-12.983-35.753-22.844-51.362-29.089C216.801,24.394,236.05,21.333,256,21.333z
				 M64,213.335c0-14.427,1.611-28.483,4.642-42.011c5.596-7.556,32.343-40.839,73.085-46.483
				c8.027-1.113,24.697-4.033,46.164-11.095c5.596-1.842,8.64-7.871,6.798-13.467c-1.842-5.596-7.866-8.64-13.467-6.798
				c-19.874,6.54-35.112,9.217-42.425,10.229c-21.497,2.977-39.549,12.031-53.658,22.09c17.996-34.986,46.431-63.75,81.156-82.179
				c18.612,0.802,49.094,15.756,80.581,39.668c10.279,7.808,20.332,16.279,30.044,25.227
				c-33.955,24.571-70.343,57.194-104.225,93.768c-36.597,39.504-65.85,78.761-81.685,109.141C73.869,282.7,64,249.15,64,213.335z
				 M375.897,363.181c-32.88,26.358-74.576,42.153-119.897,42.153c-3.523,0-7.021-0.102-10.498-0.291
				c10.496-15.171,21.696-38.068,31.027-76.337c1.394-5.723-2.114-11.493-7.838-12.89c-5.727-1.392-11.493,2.112-12.89,7.836
				c-10.878,44.617-23.978,65.705-34.961,78.446c-46.767-8.691-87.636-34.379-115.92-70.402
				c12.617-29.036,43.961-72.308,83.427-114.91c34.039-36.746,70.521-69.277,104.153-93.2c11.227,11.421,21.825,23.456,31.573,35.85
				c-21.865,14.56-39.237,27.994-51.527,77.635c-1.417,5.718,2.073,11.502,7.79,12.918c0.862,0.212,1.723,0.315,2.573,0.315
				c4.787,0,9.143-3.248,10.346-8.107c10.51-42.459,23.128-52.052,43.576-65.627c2.186,3.106,4.335,6.223,6.402,9.355
				C373.578,231.922,403.619,299.762,375.897,363.181z M406.553,332.352c2.662-19.023,1.854-39.047-2.444-59.904
				c-6.562-31.836-21.052-64.898-43.071-98.273c-2.073-3.141-4.223-6.269-6.411-9.386c23.93-15,50.339-22.727,92.994,36.638
				c0.242,3.939,0.379,7.908,0.379,11.908C448,258.252,432.49,299.613,406.553,332.352z"/>
			<path d="M350.99,88.944c1.292,0,2.606-0.236,3.882-0.736c1.571-0.614,3.127-1.196,4.627-1.729
				c5.55-1.978,8.448-8.077,6.47-13.627c-1.975-5.552-8.079-8.444-13.627-6.47c-1.705,0.606-3.467,1.267-5.239,1.958
				c-5.486,2.146-8.194,8.334-6.05,13.819C342.7,86.371,346.725,88.944,350.99,88.944z"/>
			<path d="M212.893,103.302c1.462,0,2.949-0.304,4.369-0.942c1.754-0.789,3.509-1.604,5.268-2.437
				c5.324-2.523,7.594-8.883,5.072-14.206c-2.523-5.325-8.883-7.596-14.207-5.073c-1.63,0.773-3.26,1.53-4.883,2.26
				c-5.373,2.417-7.77,8.73-5.354,14.102C204.935,100.958,208.822,103.302,212.893,103.302z"/>
			<path d="M278.665,258.769c-5.808-0.994-11.321,2.898-12.321,8.704c-0.363,2.1-0.644,3.812-0.933,5.62
				c-0.935,5.817,3.023,11.29,8.839,12.223c0.573,0.092,1.141,0.138,1.705,0.138c5.146,0,9.677-3.736,10.518-8.977
				c0.279-1.733,0.548-3.373,0.896-5.386C288.367,265.285,284.47,259.769,278.665,258.769z"/>
			<path d="M362.665,490.667l-213.333-0.004c-5.89,0-10.667,4.778-10.667,10.667c0,5.891,4.775,10.667,10.667,10.667L362.665,512
				c5.89,0,10.667-4.775,10.667-10.667C373.331,495.443,368.557,490.667,362.665,490.667z"/>
		</g>
	</g>
</g>
<g>
</g>
<g>
</g>
<g>
</g>
<g>
</g>
<g>
</g>
<g>
</g>
<g>
</g>
<g>
</g>
<g>
</g>
<g>
</g>
<g>
</g>
<g>
</g>
<g>
</g>
<g>
</g>
<g>
</g>
</svg>
